# xmcd
#
# Track frame offsets: 
#        150
#        20120
#        41281
#        65196
#        89356
#        113224
#        135815
#        149523
#        163859
#        178160
#        192500
#        218319
#        236395
#        253111
#        275276
#        300565
#        321317
#
# Disc length: 4542 seconds
#
# Revision: 0
# Processed by: cddbd v1.5.1PL2 Copyright (c) Steve Scherf et al.
# Submitted via: ExactAudioCopy v0.95b3
#
DISCID=f511bc11
DTITLE=Lucky Peterson - Ray Dunnetts' Birthday Party [CD1 of 2)
DYEAR=2004
DGENRE=Blues
TTITLE0=I'm Talkin' To You
TTITLE1=She's A Burglar
TTITLE2=Lucky In Love
TTITLE3=Truly Your Friend
TTITLE4=I'm Free
TTITLE5=Black Midnight Sun
TTITLE6=Change Your Ways
TTITLE7=Dead Cat On The Line
TTITLE8=Your Lies
TTITLE9=Don't Cry No More
TTITLE10=Why Can't We Live Together
TTITLE11=Lucky Strikes
TTITLE12=Shining Star
TTITLE13=Your Love's Amazing
TTITLE14=Bad Condition
TTITLE15=Tribute To Luther Allison
TTITLE16=Change Is Gonna Come
EXTD=
EXTT0=
EXTT1=
EXTT2=
EXTT3=
EXTT4=
EXTT5=
EXTT6=
EXTT7=
EXTT8=
EXTT9=
EXTT10=
EXTT11=
EXTT12=
EXTT13=
EXTT14=
EXTT15=
EXTT16=
PLAYORDER=
